<?xml version="1.0"?><svg xmlns="http://www.w3.org/2000/svg" xmlns:xlink="http://www.w3.org/1999/xlink" width="1200" height="600" viewBox="0 0 1200 600" version="1.1" xml:space="preserve" style="fill-rule:evenodd;clip-rule:evenodd;stroke-linejoin:round;stroke-miterlimit:2;" xmlns:c2pa="http://c2pa.org/manifest"><metadata><c2pa:manifest>AAAWgmp1bWIAAAAeanVtZGMycGEAEQAQgAAAqgA4m3EDYzJwYQAAABZcanVtYgAAAEdqdW1kYzJtYQARABCAAACqADibcQN1cm46YzJwYTo3YjhjZGY4Mi0xODdlLTQyMzUtOWNlNC1mYThjZGJmNjgyZjUAAAADl2p1bWIAAAApanVtZGMyYXMAEQAQgAAAqgA4m3EDYzJwYS5hc3NlcnRpb25zAAAAALxqdW1iAAAARGp1bWRjYm9yABEAEIAAAKoAOJtxE2MycGEuaW5ncmVkaWVudC52MwAAAAAYYzJzaDz4CtZpam0NvBAOJr+uwRwAAABwY2JvcqNpZGM6Zm9ybWF0bWltYWdlL3N2Zyt4bWxqaW5zdGFuY2VJRHgseG1wOmlpZDo4MWFlMDlhNS0xN2Q0LTQ1YTEtODNiNi0yZDMzNTg1ZTEzN2JscmVsYXRpb25zaGlwaHBhcmVudE9mAAAB4mp1bWIAAABBanVtZGNib3IAEQAQgAAAqgA4m3ETYzJwYS5hY3Rpb25zLnYyAAAAABhjMnNohKOmrkuBBeHga0eyeydcogAAAZljYm9yomdhY3Rpb25zgqJmYWN0aW9ua2MycGEub3BlbmVkanBhcmFtZXRlcnOha2luZ3JlZGllbnRzgaJjdXJseC1zZWxmI2p1bWJmPWMycGEuYXNzZXJ0aW9ucy9jMnBhLmluZ3JlZGllbnQudjNkaGFzaFggZlrghduviRDiCXeKZsvIMB0yNf33WD48dq6rr3ucAO2kZmFjdGlvbngdY29tLmFudGhyb3BpYy5jbGF1ZGUucHJvdmlkZWRqcGFyYW1ldGVyc6F4H2NvbS5hbnRocm9waWMub3JpZ2luLWNvbmZpZGVuY2VndW5rbm93bmtkZXNjcmlwdGlvbnhmQ2xhdWRlIHByb3ZpZGVkIHRoaXMgZmlsZSBhdCB0aGUgcmVxdWVzdCBvZiBhIHVzZXIgYW5kIG1heSBoYXZlIGNyZWF0ZWQgb3IgbW9kaWZpZWQgdGhlIGZpbGUgY29udGVudHMubXNvZnR3YXJlQWdlbnShZG5hbWVmQ2xhdWRlcmFsbEFjdGlvbnNJbmNsdWRlZPUAAADIanVtYgAAAEBqdW1kY2JvcgARABCAAACqADibcRNjMnBhLmhhc2guZGF0YQAAAAAYYzJzaN/LkU6KHVu/UsJalw646akAAACAY2JvcqVjYWxnZnNoYTI1NmNwYWRMAAAAAAAAAAAAAAAAZGhhc2hYIJEh8TSb8Bqq8a7NPAzE+98sauZNNSDyv+Enz9AXA18cZG5hbWVuanVtYmYgbWFuaWZlc3RqZXhjbHVzaW9uc4GiZXN0YXJ0GQFSZmxlbmd0aBkeBAAAAj5qdW1iAAAAJ2p1bWRjMmNsABEAEIAAAKoAOJtxA2MycGEuY2xhaW0udjIAAAACD2Nib3KlY2FsZ2ZzaGEyNTZpc2lnbmF0dXJleE1zZWxmI2p1bWJmPS9jMnBhL3VybjpjMnBhOjdiOGNkZjgyLTE4N2UtNDIzNS05Y2U0LWZhOGNkYmY2ODJmNS9jMnBhLnNpZ25hdHVyZWppbnN0YW5jZUlEeCx4bXA6aWlkOjY5MmM4YTBjLThlYWYtNGMyZS1iM2RiLTA4M2EyNTQxODFhMHJjcmVhdGVkX2Fzc2VydGlvbnODomN1cmx4LXNlbGYjanVtYmY9YzJwYS5hc3NlcnRpb25zL2MycGEuaW5ncmVkaWVudC52M2RoYXNoWCBmWuCF26+JEOIJd4pmy8gwHTI1/fdYPjx2rquve5wA7aJjdXJseCpzZWxmI2p1bWJmPWMycGEuYXNzZXJ0aW9ucy9jMnBhLmFjdGlvbnMudjJkaGFzaFggxvB7s8pqzYFObkGoHCdecBN7X86JQUydsUHM9mAg0/miY3VybHgpc2VsZiNqdW1iZj1jMnBhLmFzc2VydGlvbnMvYzJwYS5oYXNoLmRhdGFkaGFzaFgg9iiKPejSooaprt5Ws6sgNaGnSRJVF8uPn8RuQylwpOl0Y2xhaW1fZ2VuZXJhdG9yX2luZm+jZG5hbWVvQW50aHJvcGljIEZpbGVzZ3ZlcnNpb25lMS4wLjBrc3BlY1ZlcnNpb25lMi40LjAAABA4anVtYgAAAChqdW1kYzJjcwARABCAAACqADibcQNjMnBhLnNpZ25hdHVyZQAAABAIY2JvctKEWQISogEmGCFZAgowggIGMIIBjaADAgECAhRA5aAK7sI50L64g/oGQgU9Z1UTADAKBggqhkjOPQQDAzBJMRcwFQYDVQQKEw5BbnRocm9waWMsIFBCQzEuMCwGA1UEAxMlQW50aHJvcGljIENvbnRlbnQgQ3JlZGVudGlhbHMgUm9vdCBDQTAeFw0yNjA4MDcxODQzNTZaFw0yODA4MDYxOTQzNTZaMEQxFzAVBgNVBAoTDkFudGhyb3BpYywgUEJDMSkwJwYDVQQDEyBBbnRocm9waWMgQ2xhdWRlIENvbnRlbnQgU2lnbmluZzBZMBMGByqGSM49AgEGCCqGSM49AwEHA0IABJh6CmvLUBgFFNU0vUKlOVtE6djd17L5SuwX0LemFisBM3dkd/3cyjxFA3Qo5S46fX0/ihY0VZ7mfb9KF703t5OjWDBWMA4GA1UdDwEB/wQEAwIHgDAVBgNVHSUEDjAMBgorBgEEAYPoXgIBMAwGA1UdEwEB/wQCMAAwHwYDVR0jBBgwFoAUzlHiBIFOZFsj+OPEz5o+nMHXXMIwCgYIKoZIzj0EAwMDZwAwZAIwMXMdFJ4BetLLVY7ORuE9noqbbAZOZn/aArXyTwFAZfKrPzxF2vPoJNf1+UCdg1XGAjBwX1zd9WGqYkqmL5SFqw1QySjr1zJfpJM9+1rdDwSPLMOPOjKuiXjoU/pUUeG9RwmhY3BhZFkNngAAAAAAAAAAAAAAAAAAAAAAAAAAAAAAAAAAAAAAAAAAAAAAAAAAAAAAAAAAAAAAAAAAAAAAAAAAAAAAAAAAAAAAAAAAAAAAAAAAAAAAAAAAAAAAAAAAAAAAAAAAAAAAAAAAAAAAAAAAAAAAAAAAAAAAAAAAAAAAAAAAAAAAAAAAAAAAAAAAAAAAAAAAAAAAAAAAAAAAAAAAAAAAAAAAAAAAAAAAAAAAAAAAAAAAAAAAAAAAAAAAAAAAAAAAAAAAAAAAAAAAAAAAAAAAAAAAAAAAAAAAAAAAAAAAAAAAAAAAAAAAAAAAAAAAAAAAAAAAAAAAAAAAAAAAAAAAAAAAAAAAAAAAAAAAAAAAAAAAAAAAAAAAAAAAAAAAAAAAAAAAAAAAAAAAAAAAAAAAAAAAAAAAAAAAAAAAAAAAAAAAAAAAAAAAAAAAAAAAAAAAAAAAAAAAAAAAAAAAAAAAAAAAAAAAAAAAAAAAAAAAAAAAAAAAAAAAAAAAAAAAAAAAAAAAAAAAAAAAAAAAAAAAAAAAAAAAAAAAAAAAAAAAAAAAAAAAAAAAAAAAAAAAAAAAAAAAAAAAAAAAAAAAAAAAAAAAAAAAAAAAAAAAAAAAAAAAAAAAAAAAAAAAAAAAAAAAAAAAAAAAAAAAAAAAAAAAAAAAAAAAAAAAAAAAAAAAAAAAAAAAAAAAAAAAAAAAAAAAAAAAAAAAAAAAAAAAAAAAAAAAAAAAAAAAAAAAAAAAAAAAAAAAAAAAAAAAAAAAAAAAAAAAAAAAAAAAAAAAAAAAAAAAAAAAAAAAAAAAAAAAAAAAAAAAAAAAAAAAAAAAAAAAAAAAAAAAAAAAAAAAAAAAAAAAAAAAAAAAAAAAAAAAAAAAAAAAAAAAAAAAAAAAAAAAAAAAAAAAAAAAAAAAAAAAAAAAAAAAAAAAAAAAAAAAAAAAAAAAAAAAAAAAAAAAAAAAAAAAAAAAAAAAAAAAAAAAAAAAAAAAAAAAAAAAAAAAAAAAAAAAAAAAAAAAAAAAAAAAAAAAAAAAAAAAAAAAAAAAAAAAAAAAAAAAAAAAAAAAAAAAAAAAAAAAAAAAAAAAAAAAAAAAAAAAAAAAAAAAAAAAAAAAAAAAAAAAAAAAAAAAAAAAAAAAAAAAAAAAAAAAAAAAAAAAAAAAAAAAAAAAAAAAAAAAAAAAAAAAAAAAAAAAAAAAAAAAAAAAAAAAAAAAAAAAAAAAAAAAAAAAAAAAAAAAAAAAAAAAAAAAAAAAAAAAAAAAAAAAAAAAAAAAAAAAAAAAAAAAAAAAAAAAAAAAAAAAAAAAAAAAAAAAAAAAAAAAAAAAAAAAAAAAAAAAAAAAAAAAAAAAAAAAAAAAAAAAAAAAAAAAAAAAAAAAAAAAAAAAAAAAAAAAAAAAAAAAAAAAAAAAAAAAAAAAAAAAAAAAAAAAAAAAAAAAAAAAAAAAAAAAAAAAAAAAAAAAAAAAAAAAAAAAAAAAAAAAAAAAAAAAAAAAAAAAAAAAAAAAAAAAAAAAAAAAAAAAAAAAAAAAAAAAAAAAAAAAAAAAAAAAAAAAAAAAAAAAAAAAAAAAAAAAAAAAAAAAAAAAAAAAAAAAAAAAAAAAAAAAAAAAAAAAAAAAAAAAAAAAAAAAAAAAAAAAAAAAAAAAAAAAAAAAAAAAAAAAAAAAAAAAAAAAAAAAAAAAAAAAAAAAAAAAAAAAAAAAAAAAAAAAAAAAAAAAAAAAAAAAAAAAAAAAAAAAAAAAAAAAAAAAAAAAAAAAAAAAAAAAAAAAAAAAAAAAAAAAAAAAAAAAAAAAAAAAAAAAAAAAAAAAAAAAAAAAAAAAAAAAAAAAAAAAAAAAAAAAAAAAAAAAAAAAAAAAAAAAAAAAAAAAAAAAAAAAAAAAAAAAAAAAAAAAAAAAAAAAAAAAAAAAAAAAAAAAAAAAAAAAAAAAAAAAAAAAAAAAAAAAAAAAAAAAAAAAAAAAAAAAAAAAAAAAAAAAAAAAAAAAAAAAAAAAAAAAAAAAAAAAAAAAAAAAAAAAAAAAAAAAAAAAAAAAAAAAAAAAAAAAAAAAAAAAAAAAAAAAAAAAAAAAAAAAAAAAAAAAAAAAAAAAAAAAAAAAAAAAAAAAAAAAAAAAAAAAAAAAAAAAAAAAAAAAAAAAAAAAAAAAAAAAAAAAAAAAAAAAAAAAAAAAAAAAAAAAAAAAAAAAAAAAAAAAAAAAAAAAAAAAAAAAAAAAAAAAAAAAAAAAAAAAAAAAAAAAAAAAAAAAAAAAAAAAAAAAAAAAAAAAAAAAAAAAAAAAAAAAAAAAAAAAAAAAAAAAAAAAAAAAAAAAAAAAAAAAAAAAAAAAAAAAAAAAAAAAAAAAAAAAAAAAAAAAAAAAAAAAAAAAAAAAAAAAAAAAAAAAAAAAAAAAAAAAAAAAAAAAAAAAAAAAAAAAAAAAAAAAAAAAAAAAAAAAAAAAAAAAAAAAAAAAAAAAAAAAAAAAAAAAAAAAAAAAAAAAAAAAAAAAAAAAAAAAAAAAAAAAAAAAAAAAAAAAAAAAAAAAAAAAAAAAAAAAAAAAAAAAAAAAAAAAAAAAAAAAAAAAAAAAAAAAAAAAAAAAAAAAAAAAAAAAAAAAAAAAAAAAAAAAAAAAAAAAAAAAAAAAAAAAAAAAAAAAAAAAAAAAAAAAAAAAAAAAAAAAAAAAAAAAAAAAAAAAAAAAAAAAAAAAAAAAAAAAAAAAAAAAAAAAAAAAAAAAAAAAAAAAAAAAAAAAAAAAAAAAAAAAAAAAAAAAAAAAAAAAAAAAAAAAAAAAAAAAAAAAAAAAAAAAAAAAAAAAAAAAAAAAAAAAAAAAAAAAAAAAAAAAAAAAAAAAAAAAAAAAAAAAAAAAAAAAAAAAAAAAAAAAAAAAAAAAAAAAAAAAAAAAAAAAAAAAAAAAAAAAAAAAAAAAAAAAAAAAAAAAAAAAAAAAAAAAAAAAAAAAAAAAAAAAAAAAAAAAAAAAAAAAAAAAAAAAAAAAAAAAAAAAAAAAAAAAAAAAAAAAAAAAAAAAAAAAAAAAAAAAAAAAAAAAAAAAAAAAAAAAAAAAAAAAAAAAAAAAAAAAAAAAAAAAAAAAAAAAAAAAAAAAAAAAAAAAAAAAAAAAAAAAAAAAAAAAAAAAAAAAAAAAAAAAAAAAAAAAAAAAAAAAAAAAAAAAAAAAAAAAAAAAAAAAAAAAAAAAAAAAAAAAAAAAAAAAAAAAAAAAAAAAAAAAAAAAAAAAAAAAAAAAAAAAAAAAAAAAAAAAAAAAAAAAAAAAAAAAAAAAAAAAAAAAAAAAAAAAAAAAAAAAAAAAAAAAAAAAAAAAAAAAAAAAAAAAAAAAAAAAAAAAAAAAAAAAAAAAAAAAAAAAAAAAAAAAAAAAAAAAAAAAAAAAAAAAAAAAAAAAAAAAAAAAAAAAAAAAAAAAAAAAAAAAAAAAAAAAAAAAAAAAAAAAAAAAAAAAAAAAAAAAAAAAAAAAAAAAAAAAAAAAAAAAAAAAAAAAAAAAAAAAAAAAAAAAAAAAAAAAAAAAAAAAAAAAAAAAAAAAAAAAAAAAAAAAAAAAAAAAAAAAAAAAAAAAAAAAAAAAAAAAAAAAAAAAAAAAAAAAAAAAAAAAAAAAAAAAAAAAAAAAAAAAAAAAAAAAAAAAAAAAAAAAAAAAAAAAAAAAAAAAAAAAAAAAAAAAAAAAAAAAAAAAAAAAAAAAAAAAAAAAAAAAAAAAAAAAAAAAAAAAAAAAAAAAAAAAAAAAAAAAAAAAAAAAAAAAAAAAAAAAAAAAAAAAAAAAAAAAAAAAAAAAAAAAAAAAAAAAAAAAAAAAAAAAAAAAAAAAAAAAAAAAAAAAAAAAAAAAAAAAAAAAAAAAAAAAAAAAAAAAAAAAAAAAAAAAAAAAAAAAAAAAAAAAAAAAAAAAAAAAAAAAAAAAAAAAAAAAAAAAAAAAAAAAAAAAAAAAAAAAAAAAAAAAAAAAAAAAAAAAAAAAAAAAAAAAAAAAAAAAAAAAAAAAAAAAAAAAAAAAAAAAAAAAAAAAAAAAAAAAAAAAAAAAAAAAAAAAAAAAAAAAAAAAAAAAAAAAAAAAAAAAAAAAAAAAAAAAAAAAAAAAAAAAAAAAAAAAAAAAAAAAAAAAAAAAAAAAAAAAAAAAAAAAAAAAAAAAAAAAAAAAAAAAAAAAAAAAAAAAAAAAAAAAAAAAAAAAAAAAAAAAAAAAAAAAAAAAAAAAAAAAAAAAAAAAAAAAAAAAAAAAAAAAAAAAAAAAAAAAAAAAAAAAAAAAAAAAAAAAAAAAAAAAAAAAAAAAAAAAAAAAAAAAAAAAAAAAAAAAAAAAAAAAAAAAAAAAAAAAAAAAAAAAAAAAAAAAAAAAAAAAAAAAAAAAAAAAAAAAAAAAAAAAAAAAAAAAAAAAAAAAAAAAAAAAAAAAAAAAAAAAAAAAAAAAAAAAAAAAAAAAAAAAAAAAAAAAAAAAAAAAAAAAAAAAAAAAAAAAAAAAAAAAAAAAAAAAAAAAAAAAAAAAAAAAAAAAAAAAAAAAAAAAAAAAAAAAAAAAAAAAAAAAAAAAAAAAAAAAAAAAAAAAAAAAAAAAAAAAAAAAAAAAAAAAAAAAAAAAAAAAAAAAAAAAAAAAAAAAAAAAAAAAAAAAAAAAAAAAAAAAAAAAAAAAAAAAAAAAAAAAAAAAAAAAAAAAAAAAAAAAAAAAAAAAAPZYQH9ALqDEMJpKC7QiE5C19/SPX2wNnnyyWIhMbzVDVj9vzRGystCvi78UfI2KuR66DQT4PNm4iCdd5+7NWangMGQ=</c2pa:manifest></metadata>
    <rect id="Artboard1" x="0" y="0" width="1200" height="600" style="fill:none;"></rect>
    <g id="Artboard11">
        <g id="path1" transform="matrix(3.61591,0,0,-3.61591,333.56,63.2516)">
            <path d="M0,0C-4.925,-5.706 -9.966,-11.706 -15.125,-17.997C-20.283,-24.289 -25.325,-30.582 -30.249,-36.872C-35.173,-43.165 -39.903,-49.262 -44.436,-55.163C-48.97,-61.064 -53.112,-66.518 -56.864,-71.519C-55.691,-71.832 -54.09,-72.027 -52.057,-72.104C-50.025,-72.184 -47.25,-72.222 -43.732,-72.222C-39.2,-72.222 -34.784,-71.91 -30.483,-71.283C-26.186,-70.658 -22.199,-69.507 -18.525,-67.824C-14.852,-66.146 -11.608,-63.82 -8.794,-60.848C-5.98,-57.879 -3.752,-54.09 -2.111,-49.477L0.234,-49.477L-8.676,-75.739C-15.555,-75.581 -22.414,-75.464 -29.253,-75.388C-36.093,-75.308 -42.952,-75.27 -49.829,-75.27C-53.425,-75.27 -57,-75.308 -60.557,-75.388C-64.114,-75.464 -67.69,-75.581 -71.285,-75.739L-72.222,-74.332L-15.125,-2.11L-30.835,-2.11C-34.275,-2.11 -37.714,-2.403 -41.153,-2.989C-44.593,-3.575 -47.759,-4.611 -50.649,-6.095C-53.542,-7.582 -56.004,-9.595 -58.036,-12.133C-60.07,-14.674 -61.436,-17.899 -62.139,-21.807L-63.781,-21.807C-63.86,-20.399 -63.839,-18.994 -63.723,-17.586C-63.605,-16.179 -63.547,-14.813 -63.547,-13.482C-63.547,-10.982 -63.429,-8.5 -63.194,-6.038C-62.96,-3.575 -62.649,-1.096 -62.257,1.408C-59.835,1.33 -57.274,1.25 -54.577,1.174C-51.881,1.094 -49.225,1.036 -46.604,0.997C-43.987,0.958 -41.466,0.938 -39.042,0.938L-32.359,0.938C-26.966,0.938 -21.71,0.977 -16.591,1.056C-11.472,1.132 -6.214,1.25 -0.821,1.408L0,0Z" style="fill-rule:nonzero;"></path>
        </g>
        <g id="path3" transform="matrix(3.61591,0,0,-3.61591,405.626,233.672)">
            <path d="M0,0C1.797,0 3.341,-0.627 4.631,-1.876C5.92,-3.128 6.566,-4.689 6.566,-6.566C6.566,-8.442 5.92,-10.007 4.631,-11.256C3.341,-12.507 1.797,-13.132 0,-13.132C-1.799,-13.132 -3.341,-12.507 -4.631,-11.256C-5.921,-10.007 -6.566,-8.442 -6.566,-6.566C-6.566,-4.689 -5.921,-3.128 -4.631,-1.876C-3.341,-0.627 -1.799,0 0,0" style="fill-rule:nonzero;"></path>
        </g>
        <g id="path5" transform="matrix(3.61591,0,0,-3.61591,573.506,263.349)">
            <path d="M0,0C-2.579,0.703 -5.198,1.055 -7.854,1.055C-9.341,1.055 -10.826,0.879 -12.31,0.528C-13.795,0.175 -15.125,-0.393 -16.296,-1.174C-17.468,-1.954 -18.427,-2.951 -19.168,-4.163C-19.913,-5.375 -20.283,-6.841 -20.283,-8.559C-20.283,-11.218 -19.366,-13.113 -17.527,-14.245C-15.692,-15.379 -13.641,-15.945 -11.372,-15.945C-8.872,-15.945 -6.585,-15.438 -4.513,-14.422C-2.442,-13.407 -0.938,-12.545 0,-11.843L0,0ZM-25.442,14.304C-24.817,16.726 -23.937,18.66 -22.804,20.107C-21.671,21.552 -20.361,22.646 -18.876,23.389C-17.392,24.131 -15.709,24.601 -13.835,24.796C-11.958,24.99 -9.966,25.09 -7.854,25.09C-5.823,25.09 -3.81,24.874 -1.816,24.445C0.177,24.014 1.973,23.291 3.576,22.276C5.177,21.26 6.467,19.911 7.445,18.23C8.421,16.549 8.911,14.498 8.911,12.076L8.911,-9.614C8.911,-11.1 9.3,-12.41 10.083,-13.542C10.864,-14.676 12.076,-15.242 13.716,-15.242C15.28,-15.242 16.667,-14.794 17.879,-13.894C19.09,-12.997 20.243,-12.117 21.338,-11.256L22.51,-12.545C21.728,-13.328 20.811,-14.245 19.754,-15.301C18.701,-16.355 17.585,-17.373 16.414,-18.35C15.242,-19.328 14.049,-20.146 12.838,-20.812C11.625,-21.475 10.434,-21.809 9.262,-21.809C8.48,-21.809 7.66,-21.554 6.8,-21.045C5.939,-20.536 5.099,-19.932 4.279,-19.229C3.458,-18.524 2.696,-17.783 1.994,-17.001C1.289,-16.221 0.663,-15.556 0.118,-15.007C-2.385,-16.728 -5.198,-18.291 -8.323,-19.698C-11.451,-21.104 -14.5,-21.809 -17.468,-21.809C-19.109,-21.809 -20.693,-21.533 -22.217,-20.988C-23.742,-20.439 -25.09,-19.658 -26.262,-18.643C-27.435,-17.628 -28.373,-16.414 -29.076,-15.007C-29.78,-13.602 -30.131,-12 -30.131,-10.201C-30.131,-6.997 -29.233,-4.437 -27.435,-2.521C-25.637,-0.607 -23.312,0.858 -20.458,1.875C-17.607,2.891 -14.361,3.575 -10.728,3.928C-7.092,4.279 -3.439,4.494 0.235,4.572L0.235,13.482C0.235,16.373 -0.665,18.601 -2.461,20.166C-4.26,21.729 -6.526,22.511 -9.261,22.511C-11.295,22.511 -12.896,21.493 -14.068,19.463C-15.241,17.429 -15.827,15.125 -15.827,12.545L-25.442,14.304Z" style="fill-rule:nonzero;"></path>
        </g>
        <g id="path7" transform="matrix(3.61591,0,0,-3.61591,649.392,332.03)">
            <path d="M0,0C2.734,0.781 5.256,1.974 7.562,3.577C9.866,5.177 12.056,6.956 14.128,8.91C16.198,10.863 18.212,12.877 20.166,14.948C22.119,17.019 24.152,18.953 26.263,20.753C24.463,22.706 22.704,24.797 20.986,27.025C19.266,29.252 17.448,31.363 15.533,33.355C13.619,35.35 11.507,37.067 9.203,38.514C6.897,39.959 4.297,40.879 1.406,41.27L1.406,42.677C3.907,42.442 6.407,42.305 8.91,42.267C11.41,42.226 13.911,42.208 16.413,42.208C18.602,42.208 20.771,42.226 22.92,42.267C25.07,42.305 27.239,42.442 29.428,42.677L29.428,41.152C28.567,40.995 27.553,40.605 26.379,39.98C25.207,39.354 24.62,38.495 24.62,37.401C24.62,36.774 24.914,35.895 25.5,34.763C26.086,33.629 26.789,32.457 27.609,31.245C28.432,30.033 29.27,28.901 30.132,27.845C30.99,26.791 31.693,26.027 32.242,25.561C33.021,26.339 33.883,27.16 34.821,28.022C35.76,28.88 36.639,29.781 37.46,30.719C38.28,31.655 38.983,32.652 39.569,33.708C40.155,34.763 40.449,35.877 40.449,37.049C40.449,38.222 39.921,39.12 38.865,39.747C37.811,40.37 36.774,40.839 35.76,41.152L35.76,42.677C37.79,42.442 39.842,42.305 41.914,42.267C43.984,42.226 46.036,42.208 48.069,42.208C49.866,42.208 51.705,42.226 53.58,42.267C55.456,42.305 57.291,42.442 59.09,42.677L59.09,41.27C56.511,40.801 54.107,39.902 51.88,38.573C49.651,37.244 47.542,35.701 45.549,33.942C43.555,32.184 41.621,30.347 39.745,28.432C37.87,26.516 35.993,24.738 34.117,23.097C35.603,21.298 37.225,19.169 38.983,16.707C40.742,14.246 42.677,11.86 44.787,9.556C46.897,7.249 49.241,5.197 51.821,3.4C54.4,1.602 57.253,0.47 60.38,0L60.38,-1.407C57.878,-1.249 55.397,-1.132 52.936,-1.056C50.473,-0.976 47.99,-0.937 45.49,-0.937C42.911,-0.937 40.331,-0.976 37.752,-1.056C35.173,-1.132 32.594,-1.249 30.015,-1.407L30.015,0C30.639,0 31.342,0.077 32.124,0.234C32.905,0.39 33.647,0.645 34.353,0.997C35.055,1.349 35.642,1.776 36.111,2.287C36.58,2.795 36.813,3.4 36.813,4.104C36.813,5.197 36.48,6.39 35.816,7.68C35.152,8.97 34.353,10.259 33.414,11.549C32.476,12.838 31.519,14.088 30.542,15.3C29.564,16.512 28.763,17.587 28.138,18.525C27.355,17.82 26.32,16.863 25.03,15.653C23.741,14.439 22.47,13.15 21.221,11.782C19.969,10.415 18.894,9.028 17.997,7.621C17.097,6.214 16.648,4.924 16.648,3.752C16.648,3.049 16.863,2.441 17.292,1.935C17.722,1.425 18.23,1.036 18.817,0.762C19.404,0.487 20.048,0.293 20.751,0.176C21.456,0.06 22.119,0 22.745,0L22.745,-1.407C20.869,-1.249 19.012,-1.132 17.177,-1.056C15.338,-0.976 13.482,-0.937 11.607,-0.937C9.651,-0.937 7.718,-0.976 5.803,-1.056C3.887,-1.132 1.953,-1.249 0,-1.407L0,0Z" style="fill-rule:nonzero;"></path>
        </g>
        <g id="path9" transform="matrix(3.61591,0,0,-3.61591,909.268,229.861)">
            <path d="M0,0C0,1.876 -0.059,3.537 -0.176,4.984C-0.292,6.429 -0.646,7.64 -1.23,8.618C-1.817,9.594 -2.696,10.396 -3.869,11.022C-5.041,11.647 -6.644,12.076 -8.676,12.312L-8.676,13.953L9.146,15.125L9.146,-19.345C9.146,-21.299 9.302,-22.843 9.615,-23.976C9.927,-25.11 10.453,-25.968 11.197,-26.555C11.939,-27.142 12.897,-27.552 14.069,-27.786C15.242,-28.021 16.688,-28.178 18.407,-28.255L18.407,-29.663C15.67,-29.504 12.916,-29.387 10.142,-29.311C7.366,-29.231 4.612,-29.193 1.877,-29.193C0.076,-29.193 -1.683,-29.231 -3.399,-29.311C-5.12,-29.387 -6.879,-29.504 -8.676,-29.663L-8.676,-28.255C-7.112,-28.178 -5.785,-28.021 -4.689,-27.786C-3.595,-27.552 -2.696,-27.142 -1.992,-26.555C-1.289,-25.968 -0.782,-25.11 -0.469,-23.976C-0.157,-22.843 -0,-21.299 -0,-19.345L0,0Z" style="fill-rule:nonzero;"></path>
        </g>
        <g id="path11" transform="matrix(3.61591,0,0,-3.61591,997.018,281.583)">
            <path d="M0,0L1.641,0C2.734,-1.641 3.966,-3.244 5.335,-4.806C6.701,-6.37 8.207,-7.777 9.848,-9.027C11.489,-10.277 13.248,-11.295 15.124,-12.076C17.001,-12.856 18.993,-13.248 21.104,-13.248C22.118,-13.248 23.154,-13.15 24.211,-12.954C25.265,-12.76 26.223,-12.428 27.083,-11.958C27.943,-11.489 28.646,-10.864 29.192,-10.082C29.74,-9.301 30.014,-8.323 30.014,-7.151C30.014,-5.198 29.29,-3.595 27.846,-2.344C26.397,-1.094 24.621,0 22.511,0.938C20.4,1.877 18.074,2.756 15.534,3.577C12.993,4.397 10.668,5.374 8.558,6.508C6.448,7.64 4.67,9.029 3.225,10.671C1.777,12.312 1.056,14.422 1.056,17.001C1.056,21.222 2.362,24.464 4.983,26.732C7.601,28.998 10.903,30.133 14.891,30.133C17.859,30.133 20.731,29.741 23.508,28.96C26.281,28.177 29.153,27.708 32.125,27.554L32.828,15.125L31.303,15.125C30.522,16.608 29.546,18.037 28.372,19.404C27.2,20.772 25.89,21.983 24.444,23.04C22.997,24.095 21.455,24.954 19.813,25.619C18.173,26.282 16.49,26.616 14.772,26.616C12.818,26.616 11.06,26.185 9.496,25.326C7.932,24.464 7.152,22.903 7.152,20.637C7.152,18.994 7.873,17.647 9.319,16.591C10.766,15.535 12.545,14.557 14.655,13.66C16.766,12.76 19.09,11.881 21.631,11.022C24.171,10.16 26.497,9.127 28.607,7.915C30.718,6.701 32.494,5.218 33.941,3.459C35.387,1.702 36.11,-0.467 36.11,-3.047C36.11,-5.785 35.66,-8.03 34.762,-9.789C33.863,-11.548 32.633,-12.937 31.069,-13.951C29.505,-14.965 27.687,-15.688 25.618,-16.12C23.546,-16.549 21.339,-16.766 18.993,-16.766C17.116,-16.766 15.318,-16.627 13.601,-16.355C11.88,-16.08 10.258,-15.748 8.734,-15.358C7.21,-14.965 5.783,-14.615 4.455,-14.302C3.124,-13.992 1.952,-13.757 0.937,-13.6L0,0Z" style="fill-rule:nonzero;"></path>
        </g>
        <g transform="matrix(1.43098,0,0,1.43098,-295.442,-230.286)">
            <g transform="matrix(101.911,0,0,101.911,228.403,514.675)">
                <path d="M0.273,0.01C0.226,0.01 0.185,0.001 0.151,-0.019C0.117,-0.038 0.091,-0.064 0.072,-0.097C0.054,-0.13 0.045,-0.168 0.045,-0.21C0.045,-0.251 0.055,-0.288 0.076,-0.322C0.096,-0.355 0.124,-0.381 0.159,-0.401C0.194,-0.421 0.232,-0.431 0.275,-0.431C0.33,-0.431 0.375,-0.415 0.411,-0.383C0.447,-0.351 0.472,-0.307 0.485,-0.251L0.144,-0.131L0.121,-0.186L0.401,-0.289L0.381,-0.275C0.373,-0.297 0.359,-0.316 0.341,-0.332C0.323,-0.348 0.298,-0.357 0.268,-0.357C0.243,-0.357 0.22,-0.35 0.2,-0.338C0.18,-0.326 0.165,-0.309 0.154,-0.288C0.142,-0.267 0.137,-0.243 0.137,-0.215C0.137,-0.187 0.142,-0.162 0.154,-0.14C0.166,-0.118 0.183,-0.101 0.204,-0.089C0.225,-0.076 0.248,-0.07 0.275,-0.07C0.293,-0.07 0.311,-0.073 0.328,-0.08C0.345,-0.087 0.361,-0.095 0.376,-0.106L0.419,-0.037C0.397,-0.023 0.374,-0.012 0.349,-0.003C0.323,0.006 0.298,0.01 0.273,0.01Z" style="fill-rule:nonzero;"></path>
            </g>
            <g transform="matrix(101.911,0,0,101.911,281.396,514.675)">
                <path d="M0.198,0.009C0.168,0.009 0.14,0.003 0.112,-0.007C0.084,-0.018 0.061,-0.033 0.043,-0.054L0.083,-0.108C0.1,-0.091 0.118,-0.079 0.136,-0.071C0.154,-0.062 0.172,-0.058 0.19,-0.058C0.203,-0.058 0.216,-0.06 0.227,-0.063C0.238,-0.066 0.247,-0.072 0.255,-0.08C0.262,-0.088 0.265,-0.098 0.265,-0.111C0.265,-0.126 0.26,-0.138 0.251,-0.146C0.241,-0.154 0.229,-0.161 0.214,-0.167C0.199,-0.172 0.183,-0.177 0.167,-0.182C0.132,-0.193 0.106,-0.209 0.088,-0.229C0.07,-0.249 0.061,-0.274 0.061,-0.303C0.061,-0.324 0.067,-0.345 0.078,-0.364C0.089,-0.383 0.105,-0.399 0.127,-0.411C0.149,-0.423 0.175,-0.428 0.207,-0.429C0.236,-0.428 0.261,-0.425 0.284,-0.418C0.307,-0.411 0.328,-0.399 0.348,-0.383L0.311,-0.326C0.299,-0.338 0.285,-0.347 0.269,-0.353C0.252,-0.359 0.237,-0.363 0.224,-0.364C0.212,-0.364 0.201,-0.362 0.191,-0.358C0.18,-0.354 0.172,-0.348 0.165,-0.341C0.159,-0.334 0.156,-0.325 0.156,-0.315C0.155,-0.301 0.16,-0.29 0.169,-0.281C0.179,-0.273 0.191,-0.266 0.206,-0.261C0.221,-0.256 0.236,-0.251 0.251,-0.246C0.271,-0.239 0.289,-0.231 0.305,-0.221C0.321,-0.211 0.334,-0.199 0.344,-0.185C0.354,-0.17 0.359,-0.151 0.359,-0.129C0.359,-0.104 0.353,-0.082 0.341,-0.061C0.329,-0.04 0.311,-0.023 0.288,-0.01C0.264,0.002 0.234,0.009 0.198,0.009Z" style="fill-rule:nonzero;"></path>
            </g>
            <g transform="matrix(101.911,0,0,101.911,322.925,514.675)">
                <path d="M0.417,-0.039C0.398,-0.024 0.376,-0.012 0.35,-0.003C0.324,0.006 0.298,0.01 0.272,0.01C0.227,0.01 0.187,0.001 0.153,-0.017C0.119,-0.035 0.092,-0.06 0.073,-0.093C0.054,-0.125 0.045,-0.164 0.045,-0.208C0.045,-0.252 0.055,-0.29 0.075,-0.322C0.095,-0.355 0.122,-0.38 0.156,-0.398C0.189,-0.416 0.225,-0.424 0.263,-0.425C0.296,-0.424 0.326,-0.42 0.352,-0.411C0.378,-0.401 0.401,-0.389 0.42,-0.373L0.373,-0.312C0.361,-0.321 0.347,-0.329 0.329,-0.337C0.312,-0.344 0.292,-0.348 0.271,-0.348C0.246,-0.348 0.224,-0.342 0.204,-0.33C0.184,-0.317 0.168,-0.3 0.156,-0.279C0.144,-0.258 0.138,-0.234 0.138,-0.208C0.138,-0.182 0.144,-0.158 0.156,-0.137C0.168,-0.115 0.185,-0.098 0.207,-0.086C0.228,-0.073 0.252,-0.067 0.28,-0.067C0.297,-0.067 0.314,-0.07 0.329,-0.075C0.344,-0.08 0.357,-0.088 0.369,-0.097L0.417,-0.039Z" style="fill-rule:nonzero;"></path>
            </g>
            <g transform="matrix(101.911,0,0,101.911,369.396,514.675)">
                <path d="M0.254,0.01C0.215,0.01 0.179,0.002 0.148,-0.015C0.116,-0.032 0.091,-0.056 0.072,-0.089C0.054,-0.121 0.045,-0.16 0.045,-0.207C0.045,-0.253 0.054,-0.293 0.074,-0.327C0.093,-0.36 0.119,-0.386 0.151,-0.404C0.183,-0.422 0.219,-0.431 0.258,-0.431C0.297,-0.431 0.329,-0.422 0.356,-0.405C0.383,-0.387 0.403,-0.366 0.417,-0.342L0.411,-0.327L0.42,-0.414L0.506,-0.414L0.506,-0L0.413,-0L0.413,-0.108L0.423,-0.084C0.42,-0.077 0.414,-0.069 0.405,-0.059C0.396,-0.048 0.384,-0.038 0.37,-0.027C0.355,-0.016 0.338,-0.008 0.319,-0.001C0.299,0.007 0.278,0.01 0.254,0.01ZM0.279,-0.067C0.302,-0.067 0.322,-0.071 0.341,-0.08C0.359,-0.089 0.375,-0.101 0.387,-0.117C0.399,-0.133 0.408,-0.151 0.413,-0.173L0.413,-0.255C0.407,-0.274 0.398,-0.291 0.385,-0.306C0.372,-0.321 0.356,-0.333 0.337,-0.341C0.318,-0.35 0.298,-0.354 0.276,-0.354C0.251,-0.354 0.228,-0.348 0.207,-0.336C0.186,-0.324 0.17,-0.307 0.158,-0.286C0.145,-0.265 0.139,-0.24 0.139,-0.212C0.139,-0.185 0.145,-0.16 0.158,-0.138C0.171,-0.116 0.188,-0.099 0.209,-0.086C0.23,-0.073 0.254,-0.067 0.279,-0.067Z" style="fill-rule:nonzero;"></path>
            </g>
            <g transform="matrix(101.911,0,0,101.911,429.167,514.675)">
                <path d="M0.326,0.01C0.294,0.01 0.264,0.003 0.235,-0.012C0.206,-0.027 0.184,-0.046 0.168,-0.071L0.174,-0.1L0.174,0.199L0.081,0.199L0.081,-0.421L0.162,-0.421L0.174,-0.314L0.164,-0.344C0.184,-0.369 0.209,-0.39 0.24,-0.406C0.271,-0.423 0.305,-0.431 0.343,-0.431C0.382,-0.431 0.417,-0.422 0.448,-0.403C0.479,-0.385 0.503,-0.359 0.522,-0.326C0.54,-0.292 0.549,-0.253 0.549,-0.208C0.549,-0.164 0.539,-0.125 0.519,-0.092C0.5,-0.059 0.473,-0.034 0.44,-0.017C0.406,0.001 0.368,0.01 0.326,0.01ZM0.308,-0.065C0.334,-0.065 0.359,-0.071 0.381,-0.083C0.403,-0.095 0.42,-0.112 0.434,-0.134C0.447,-0.156 0.454,-0.18 0.454,-0.207C0.454,-0.235 0.447,-0.26 0.435,-0.282C0.422,-0.303 0.406,-0.32 0.385,-0.333C0.364,-0.345 0.34,-0.352 0.314,-0.352C0.29,-0.352 0.268,-0.347 0.249,-0.338C0.23,-0.329 0.214,-0.316 0.201,-0.3C0.188,-0.284 0.179,-0.265 0.174,-0.243L0.174,-0.174C0.178,-0.153 0.186,-0.134 0.198,-0.118C0.211,-0.101 0.227,-0.088 0.246,-0.079C0.265,-0.069 0.285,-0.065 0.308,-0.065Z" style="fill-rule:nonzero;"></path>
            </g>
            <g transform="matrix(101.911,0,0,101.911,489.6,514.675)">
                <path d="M0.081,-0.414L0.174,-0.414L0.174,-0L0.081,-0L0.081,-0.414ZM0.074,-0.564C0.074,-0.579 0.08,-0.591 0.092,-0.601C0.103,-0.611 0.116,-0.616 0.13,-0.616C0.144,-0.616 0.157,-0.611 0.168,-0.601C0.179,-0.591 0.184,-0.579 0.184,-0.564C0.184,-0.549 0.179,-0.536 0.168,-0.527C0.157,-0.517 0.144,-0.512 0.13,-0.512C0.116,-0.512 0.103,-0.517 0.092,-0.527C0.08,-0.537 0.074,-0.549 0.074,-0.564Z" style="fill-rule:nonzero;"></path>
            </g>
            <g transform="matrix(101.911,0,0,101.911,515.536,514.675)">
                <path d="M0.165,-0.414L0.173,-0.314L0.169,-0.329C0.182,-0.36 0.203,-0.384 0.233,-0.403C0.263,-0.421 0.298,-0.43 0.338,-0.43C0.377,-0.43 0.409,-0.419 0.434,-0.396C0.459,-0.373 0.472,-0.343 0.473,-0.306L0.473,-0L0.379,-0L0.379,-0.274C0.378,-0.296 0.371,-0.314 0.359,-0.328C0.346,-0.342 0.327,-0.35 0.301,-0.35C0.277,-0.35 0.256,-0.343 0.237,-0.33C0.217,-0.317 0.202,-0.298 0.191,-0.275C0.18,-0.252 0.174,-0.225 0.174,-0.194L0.174,-0L0.081,-0L0.081,-0.414L0.165,-0.414Z" style="fill-rule:nonzero;"></path>
            </g>
            <g transform="matrix(101.911,0,0,101.911,571.893,514.675)">
                <path d="M0.281,0.206C0.25,0.206 0.223,0.202 0.199,0.195C0.176,0.188 0.155,0.178 0.136,0.165C0.117,0.152 0.098,0.138 0.081,0.123L0.136,0.059C0.158,0.079 0.18,0.095 0.202,0.107C0.225,0.118 0.25,0.124 0.279,0.124C0.31,0.124 0.336,0.118 0.358,0.108C0.379,0.098 0.396,0.083 0.407,0.065C0.418,0.047 0.424,0.026 0.424,0.002L0.425,-0.11L0.433,-0.092C0.421,-0.063 0.399,-0.039 0.368,-0.019C0.337,0 0.299,0.01 0.255,0.01C0.217,0.01 0.182,0 0.15,-0.019C0.118,-0.038 0.092,-0.065 0.073,-0.098C0.054,-0.13 0.045,-0.168 0.045,-0.209C0.045,-0.252 0.054,-0.291 0.075,-0.324C0.094,-0.357 0.121,-0.383 0.154,-0.402C0.187,-0.421 0.223,-0.431 0.261,-0.431C0.298,-0.431 0.331,-0.424 0.362,-0.409C0.392,-0.394 0.414,-0.375 0.428,-0.352L0.423,-0.334L0.433,-0.414L0.518,-0.414L0.518,0.003C0.518,0.04 0.508,0.074 0.489,0.105C0.47,0.136 0.443,0.16 0.408,0.178C0.372,0.196 0.33,0.206 0.281,0.206ZM0.139,-0.212C0.139,-0.185 0.145,-0.16 0.158,-0.138C0.17,-0.116 0.187,-0.099 0.209,-0.086C0.231,-0.073 0.255,-0.067 0.282,-0.067C0.306,-0.067 0.328,-0.072 0.347,-0.081C0.367,-0.09 0.383,-0.102 0.397,-0.118C0.41,-0.134 0.42,-0.152 0.425,-0.172L0.425,-0.254C0.419,-0.274 0.409,-0.291 0.395,-0.306C0.381,-0.321 0.365,-0.333 0.346,-0.341C0.326,-0.35 0.305,-0.354 0.282,-0.354C0.255,-0.354 0.231,-0.348 0.209,-0.336C0.187,-0.324 0.17,-0.307 0.158,-0.286C0.145,-0.264 0.139,-0.24 0.139,-0.212Z" style="fill-rule:nonzero;"></path>
            </g>
            <g transform="matrix(101.911,0,0,101.911,665.09,514.675)">
                <path d="M0.115,-0L0.115,-0.331L0.044,-0.331L0.044,-0.415L0.115,-0.415L0.115,-0.589C0.115,-0.649 0.128,-0.695 0.156,-0.727C0.183,-0.759 0.223,-0.775 0.276,-0.775C0.29,-0.775 0.305,-0.773 0.322,-0.769C0.339,-0.765 0.354,-0.759 0.367,-0.75L0.327,-0.682C0.321,-0.688 0.315,-0.692 0.308,-0.695C0.3,-0.697 0.293,-0.698 0.285,-0.698C0.261,-0.698 0.242,-0.69 0.228,-0.673C0.215,-0.656 0.208,-0.628 0.208,-0.588L0.208,-0.415L0.327,-0.415L0.327,-0.331L0.208,-0.331L0.208,-0L0.115,-0ZM0.406,-0.775L0.5,-0.775L0.5,-0L0.406,-0L0.406,-0.775Z" style="fill-rule:nonzero;"></path>
            </g>
            <g transform="matrix(101.911,0,0,101.911,724.198,514.675)">
                <path d="M0.254,0.01C0.215,0.01 0.179,0.002 0.148,-0.015C0.116,-0.032 0.091,-0.056 0.072,-0.089C0.054,-0.121 0.045,-0.16 0.045,-0.207C0.045,-0.253 0.054,-0.293 0.074,-0.327C0.093,-0.36 0.119,-0.386 0.151,-0.404C0.183,-0.422 0.219,-0.431 0.258,-0.431C0.297,-0.431 0.329,-0.422 0.356,-0.405C0.383,-0.387 0.403,-0.366 0.417,-0.342L0.411,-0.327L0.42,-0.414L0.506,-0.414L0.506,-0L0.413,-0L0.413,-0.108L0.423,-0.084C0.42,-0.077 0.414,-0.069 0.405,-0.059C0.396,-0.048 0.384,-0.038 0.37,-0.027C0.355,-0.016 0.338,-0.008 0.319,-0.001C0.299,0.007 0.278,0.01 0.254,0.01ZM0.279,-0.067C0.302,-0.067 0.322,-0.071 0.341,-0.08C0.359,-0.089 0.375,-0.101 0.387,-0.117C0.399,-0.133 0.408,-0.151 0.413,-0.173L0.413,-0.255C0.407,-0.274 0.398,-0.291 0.385,-0.306C0.372,-0.321 0.356,-0.333 0.337,-0.341C0.318,-0.35 0.298,-0.354 0.276,-0.354C0.251,-0.354 0.228,-0.348 0.207,-0.336C0.186,-0.324 0.17,-0.307 0.158,-0.286C0.145,-0.265 0.139,-0.24 0.139,-0.212C0.139,-0.185 0.145,-0.16 0.158,-0.138C0.171,-0.116 0.188,-0.099 0.209,-0.086C0.23,-0.073 0.254,-0.067 0.279,-0.067Z" style="fill-rule:nonzero;"></path>
            </g>
            <g transform="matrix(101.911,0,0,101.911,783.969,514.675)">
                <path d="M0.121,-0.596L0.215,-0.596L0.215,-0.413L0.328,-0.413L0.328,-0.339L0.215,-0.339L0.215,-0L0.121,-0L0.121,-0.339L0.045,-0.339L0.045,-0.413L0.121,-0.413L0.121,-0.596Z" style="fill-rule:nonzero;"></path>
            </g>
            <g transform="matrix(101.911,0,0,101.911,820.606,514.675)">
                <rect x="0.081" y="-0.775" width="0.094" height="0.775" style="fill-rule:nonzero;"></rect>
            </g>
            <g transform="matrix(101.911,0,0,101.911,846.542,514.675)">
                <path d="M0.254,0.01C0.215,0.01 0.179,0.002 0.148,-0.015C0.116,-0.032 0.091,-0.056 0.072,-0.089C0.054,-0.121 0.045,-0.16 0.045,-0.207C0.045,-0.253 0.054,-0.293 0.074,-0.327C0.093,-0.36 0.119,-0.386 0.151,-0.404C0.183,-0.422 0.219,-0.431 0.258,-0.431C0.297,-0.431 0.329,-0.422 0.356,-0.405C0.383,-0.387 0.403,-0.366 0.417,-0.342L0.411,-0.327L0.42,-0.414L0.506,-0.414L0.506,-0L0.413,-0L0.413,-0.108L0.423,-0.084C0.42,-0.077 0.414,-0.069 0.405,-0.059C0.396,-0.048 0.384,-0.038 0.37,-0.027C0.355,-0.016 0.338,-0.008 0.319,-0.001C0.299,0.007 0.278,0.01 0.254,0.01ZM0.279,-0.067C0.302,-0.067 0.322,-0.071 0.341,-0.08C0.359,-0.089 0.375,-0.101 0.387,-0.117C0.399,-0.133 0.408,-0.151 0.413,-0.173L0.413,-0.255C0.407,-0.274 0.398,-0.291 0.385,-0.306C0.372,-0.321 0.356,-0.333 0.337,-0.341C0.318,-0.35 0.298,-0.354 0.276,-0.354C0.251,-0.354 0.228,-0.348 0.207,-0.336C0.186,-0.324 0.17,-0.307 0.158,-0.286C0.145,-0.265 0.139,-0.24 0.139,-0.212C0.139,-0.185 0.145,-0.16 0.158,-0.138C0.171,-0.116 0.188,-0.099 0.209,-0.086C0.23,-0.073 0.254,-0.067 0.279,-0.067Z" style="fill-rule:nonzero;"></path>
            </g>
            <g transform="matrix(101.911,0,0,101.911,906.313,514.675)">
                <path d="M0.165,-0.414L0.173,-0.314L0.169,-0.329C0.182,-0.36 0.203,-0.384 0.233,-0.403C0.263,-0.421 0.298,-0.43 0.338,-0.43C0.377,-0.43 0.409,-0.419 0.434,-0.396C0.459,-0.373 0.472,-0.343 0.473,-0.306L0.473,-0L0.379,-0L0.379,-0.274C0.378,-0.296 0.371,-0.314 0.359,-0.328C0.346,-0.342 0.327,-0.35 0.301,-0.35C0.277,-0.35 0.256,-0.343 0.237,-0.33C0.217,-0.317 0.202,-0.298 0.191,-0.275C0.18,-0.252 0.174,-0.225 0.174,-0.194L0.174,-0L0.081,-0L0.081,-0.414L0.165,-0.414Z" style="fill-rule:nonzero;"></path>
            </g>
            <g transform="matrix(101.911,0,0,101.911,962.669,514.675)">
                <path d="M0.25,0.01C0.211,0.01 0.176,0.001 0.145,-0.018C0.114,-0.036 0.09,-0.062 0.072,-0.096C0.054,-0.129 0.045,-0.168 0.045,-0.213C0.045,-0.258 0.054,-0.297 0.073,-0.33C0.092,-0.363 0.118,-0.388 0.151,-0.405C0.184,-0.422 0.22,-0.431 0.261,-0.431C0.294,-0.431 0.325,-0.424 0.355,-0.41C0.384,-0.396 0.407,-0.377 0.424,-0.352L0.42,-0.319L0.42,-0.775L0.513,-0.775L0.513,-0L0.419,-0L0.419,-0.103L0.429,-0.077C0.409,-0.051 0.384,-0.031 0.354,-0.015C0.323,0.002 0.288,0.01 0.25,0.01ZM0.279,-0.07C0.303,-0.07 0.325,-0.074 0.344,-0.083C0.363,-0.092 0.379,-0.105 0.392,-0.121C0.405,-0.136 0.413,-0.155 0.419,-0.177L0.419,-0.255C0.413,-0.275 0.404,-0.293 0.391,-0.308C0.377,-0.323 0.361,-0.335 0.342,-0.344C0.323,-0.352 0.302,-0.357 0.279,-0.357C0.253,-0.357 0.23,-0.35 0.209,-0.338C0.188,-0.326 0.171,-0.309 0.158,-0.288C0.145,-0.267 0.139,-0.242 0.139,-0.214C0.139,-0.187 0.145,-0.163 0.158,-0.141C0.171,-0.119 0.188,-0.102 0.209,-0.089C0.23,-0.076 0.254,-0.07 0.279,-0.07Z" style="fill-rule:nonzero;"></path>
            </g>
        </g>
    </g>
</svg>